# xmcd
#
# Track frame offsets:
# 150
# 12352
# 20952
# 37967
# 49345
# 64672
# 77527
# 89290
# 97775
# 118635
# 130742
# 141692
#
# Disc length: 2076 seconds
#
# Revision: 0
# Processed by: cddbd v1.4b42PL1 Copyright (c) Steve Scherf et al.
# Submitted via: Audion 2.5.0 (http://www.panic.com/audion/)
#
DISCID=9d081a0c
DTITLE=Stumbleweeds - Pickin' and Sinnin'
DYEAR=1900
DGENRE=
TTITLE0=Diggin' For Gold
TTITLE1=Slowly But Surely
TTITLE2=Nashville to Nashua
TTITLE3=Pickin' and Sinnin'
TTITLE4=When You're Finally Done Drinkin'
TTITLE5=Wine, Women and Sin
TTITLE6=Heart On Fire
TTITLE7=Honky Tonk Merry Go Round
TTITLE8=One More Beer, One More Tear
TTITLE9=Foot Stompin' Friday Night
TTITLE10=Wasted
TTITLE11=The Marriage Song
EXTD=
EXTT0=
EXTT1=
EXTT2=
EXTT3=
EXTT4=
EXTT5=
EXTT6=
EXTT7=
EXTT8=
EXTT9=
EXTT10=
EXTT11=
PLAYORDER=
